<svg version="1.1" xmlns="http://www.w3.org/2000/svg" xmlns:xlink="http://www.w3.org/1999/xlink" width="232.5" height="268.6"><defs><linearGradient id="InxiGKUAiwWh" x1="576.5px" x2="1129.0000007152557px" y1="300px" y2="400px" gradientUnits="userSpaceOnUse"><stop offset="0" stop-color="rgb(255,193,7)" stop-opacity="1"/><stop offset="1" stop-color="rgb(211,211,211)" stop-opacity="1"/></linearGradient><linearGradient id="DxlSDalDSOwz" x1="576.5px" x2="1129.0000007152557px" y1="433.00000071525574px" y2="400px" gradientUnits="userSpaceOnUse"><stop offset="0" stop-color="rgb(255,193,7)" stop-opacity="1"/><stop offset="1" stop-color="rgb(211,211,211)" stop-opacity="1"/></linearGradient><linearGradient id="RJALGXfoAAdg" x1="576.5px" x2="1129.0000007152557px" y1="566.0000014305115px" y2="400px" gradientUnits="userSpaceOnUse"><stop offset="0" stop-color="rgb(255,193,7)" stop-opacity="1"/><stop offset="1" stop-color="rgb(211,211,211)" stop-opacity="1"/></linearGradient><linearGradient id="nfRzeMAZPnED" x1="1403.0000007152557px" x2="1403.0000007152557px" y1="439px" y2="686.7000007152558px" gradientUnits="userSpaceOnUse"><stop offset="0" stop-color="rgb(211,211,211)" stop-opacity="1"/><stop offset="1" stop-color="rgb(220,71,125)" stop-opacity="1"/></linearGradient><linearGradient id="bTMUMyzUkdXn" x1="1403.0000007152557px" x2="300px" y1="439px" y2="1851.9000042915345px" gradientUnits="userSpaceOnUse"><stop offset="0" stop-color="rgb(211,211,211)" stop-opacity="1"/><stop offset="1" stop-color="rgb(29,122,218)" stop-opacity="1"/></linearGradient><linearGradient id="TvuJZLlsTDMa" x1="1403.0000007152557px" x2="300px" y1="439px" y2="2117.900005722046px" gradientUnits="userSpaceOnUse"><stop offset="0" stop-color="rgb(211,211,211)" stop-opacity="1"/><stop offset="1" stop-color="rgb(29,122,218)" stop-opacity="1"/></linearGradient><linearGradient id="xVEaJGiWFTBC" x1="1403.0000007152557px" x2="300px" y1="439px" y2="1984.9000050067903px" gradientUnits="userSpaceOnUse"><stop offset="0" stop-color="rgb(211,211,211)" stop-opacity="1"/><stop offset="1" stop-color="rgb(29,122,218)" stop-opacity="1"/></linearGradient><linearGradient id="nkxlvtiqFigf" x1="1403.0000007152557px" x2="300px" y1="439px" y2="2250.9000064373017px" gradientUnits="userSpaceOnUse"><stop offset="0" stop-color="rgb(211,211,211)" stop-opacity="1"/><stop offset="1" stop-color="rgb(29,122,218)" stop-opacity="1"/></linearGradient></defs><g transform="translate(28.1,4.75) scale(0.1,0.1)"><path fill="rgb(244,236,255)" stroke="rgb(255,255,255)" paint-order="fill stroke markers" d=" M 881.0000003576279 -45.5 L 2033.0000007152557 -45.5 L 2033.0000007152557 -45.5 A 8 8 0 0 1 2041.0000007152557 -37.5 L 2041.0000007152557 2628.4000064373017 L 2041.0000007152557 2628.4000064373017 A 8 8 0 0 1 2033.0000007152557 2636.4000064373017 L -271 2636.4000064373017 L -271 2636.4000064373017 A 8 8 0 0 1 -279 2628.4000064373017 L -279 -37.5 L -279 -37.5 A 8 8 0 0 1 -271 -45.5 L 881.0000003576279 -45.5 Z" fill-opacity="1" stroke-opacity="1" stroke-miterlimit="10" stroke-width="2"/><text fill="rgb(0,0,0)" stroke="none" font-family="Avenir, Helvetica, Arial, sans-serif" font-size="32px" font-style="normal" font-weight="bold" text-decoration="normal" x="881.0000003576279" y="29.5" text-anchor="middle" dominant-baseline="text-after-edge" fill-opacity="1">.</text><path fill="rgb(255,255,255)" stroke="rgb(211,211,211)" paint-order="fill stroke markers" d=" M 300 157.5 L 669.5 157.5 L 669.5 157.5 A 8 8 0 0 1 677.5 165.5 L 677.5 700.5000014305115 L 677.5 700.5000014305115 A 8 8 0 0 1 669.5 708.5000014305115 L -69.5 708.5000014305115 L -69.5 708.5000014305115 A 8 8 0 0 1 -77.5 700.5000014305115 L -77.5 165.5 L -77.5 165.5 A 8 8 0 0 1 -69.5 157.5 L 300 157.5 Z" fill-opacity="1" stroke-opacity="1" stroke-miterlimit="10"/><text fill="rgb(0,0,0)" stroke="none" font-family="Avenir, Helvetica, Arial, sans-serif" font-size="32px" font-style="normal" font-weight="bold" text-decoration="normal" x="300" y="232.5" text-anchor="middle" dominant-baseline="text-after-edge" fill-opacity="1">outputs.tf</text><path fill="rgb(255,255,255)" stroke="rgb(211,211,211)" paint-order="fill stroke markers" d=" M 300 1218.9000014305116 L 669.5 1218.9000014305116 L 669.5 1218.9000014305116 A 8 8 0 0 1 677.5 1226.9000014305116 L 677.5 2426.9000064373017 L 677.5 2426.9000064373017 A 8 8 0 0 1 669.5 2434.9000064373017 L -69.5 2434.9000064373017 L -69.5 2434.9000064373017 A 8 8 0 0 1 -77.5 2426.9000064373017 L -77.5 1226.9000014305116 L -77.5 1226.9000014305116 A 8 8 0 0 1 -69.5 1218.9000014305116 L 300 1218.9000014305116 Z" fill-opacity="1" stroke-opacity="1" stroke-miterlimit="10"/><text fill="rgb(0,0,0)" stroke="none" font-family="Avenir, Helvetica, Arial, sans-serif" font-size="32px" font-style="normal" font-weight="bold" text-decoration="normal" x="300" y="1293.9000014305116" text-anchor="middle" dominant-baseline="text-after-edge" fill-opacity="1">variables.tf</text><path fill="rgb(255,255,255)" stroke="rgb(211,211,211)" paint-order="fill stroke markers" d=" M 1403.0000007152557 156 L 1831.5000007152557 156 L 1831.5000007152557 156 A 8 8 0 0 1 1839.5000007152557 164 L 1839.5000007152557 921.7000007152558 L 1839.5000007152557 921.7000007152558 A 8 8 0 0 1 1831.5000007152557 929.7000007152558 L 974.5000007152557 929.7000007152558 L 974.5000007152557 929.7000007152558 A 8 8 0 0 1 966.5000007152557 921.7000007152558 L 966.5000007152557 164 L 966.5000007152557 164 A 8 8 0 0 1 974.5000007152557 156 L 1403.0000007152557 156 Z" fill-opacity="1" stroke-opacity="1" stroke-miterlimit="10"/><text fill="rgb(0,0,0)" stroke="none" font-family="Avenir, Helvetica, Arial, sans-serif" font-size="32px" font-style="normal" font-weight="bold" text-decoration="normal" x="1403.0000007152557" y="231" text-anchor="middle" dominant-baseline="text-after-edge" fill-opacity="1">main.tf</text><path fill="rgb(255,255,255)" stroke="rgb(0,0,0)" paint-order="fill stroke markers" d=" M 1403.0000007152557 630.2000007152558 L 1728.0000007152557 630.2000007152558 L 1728.0000007152557 630.2000007152558 A 8 8 0 0 1 1736.0000007152557 638.2000007152558 L 1736.0000007152557 818.2000007152558 L 1736.0000007152557 818.2000007152558 A 8 8 0 0 1 1728.0000007152557 826.2000007152558 L 1078.0000007152557 826.2000007152558 L 1078.0000007152557 826.2000007152558 A 8 8 0 0 1 1070.0000007152557 818.2000007152558 L 1070.0000007152557 638.2000007152558 L 1070.0000007152557 638.2000007152558 A 8 8 0 0 1 1078.0000007152557 630.2000007152558 L 1403.0000007152557 630.2000007152558 Z" fill-opacity="1" stroke-opacity="1" stroke-miterlimit="10" stroke-width="5"/><rect fill="rgb(255,255,255)" stroke="none" x="1304.5000007152557" y="581.2000007152558" width="197" height="96" fill-opacity="1"/><text fill="rgb(0,0,0)" stroke="none" font-family="Avenir, Helvetica, Arial, sans-serif" font-size="32px" font-style="normal" font-weight="bold" text-decoration="normal" x="1403.0000007152557" y="645.2000007152558" text-anchor="middle" dominant-baseline="text-after-edge" fill-opacity="1">aws_ami</text><path fill="rgb(255,255,255)" stroke="rgb(0,0,0)" paint-order="fill stroke markers" d=" M 1403.0000007152557 305 L 1725.0000007152557 305 L 1725.0000007152557 305 A 8 8 0 0 1 1733.0000007152557 313 L 1733.0000007152557 487 L 1733.0000007152557 487 A 8 8 0 0 1 1725.0000007152557 495 L 1081.0000007152557 495 L 1081.0000007152557 495 A 8 8 0 0 1 1073.0000007152557 487 L 1073.0000007152557 313 L 1073.0000007152557 313 A 8 8 0 0 1 1081.0000007152557 305 L 1403.0000007152557 305 Z" fill-opacity="1" stroke-opacity="1" stroke-miterlimit="10" stroke-width="5"/><rect fill="rgb(255,255,255)" stroke="none" x="1267.0000007152557" y="256" width="272" height="96" fill-opacity="1"/><text fill="rgb(0,0,0)" stroke="none" font-family="Avenir, Helvetica, Arial, sans-serif" font-size="32px" font-style="normal" font-weight="bold" text-decoration="normal" x="1403.0000007152557" y="320" text-anchor="middle" dominant-baseline="text-after-edge" fill-opacity="1">aws_instance</text><path fill="none" stroke="url(#InxiGKUAiwWh)" paint-order="fill stroke markers" d=" M 576.5 300 L 852.7500003576279 300 L 852.7500003576279 400 L 1129.0000007152557 400" stroke-linejoin="round" stroke-miterlimit="10" stroke-width="10"/><path fill="none" stroke="url(#DxlSDalDSOwz)" paint-order="fill stroke markers" d=" M 576.5 433.00000071525574 L 852.7500003576279 433.00000071525574 L 852.7500003576279 400 L 1129.0000007152557 400" stroke-linejoin="round" stroke-miterlimit="10" stroke-width="10"/><path fill="none" stroke="url(#RJALGXfoAAdg)" paint-order="fill stroke markers" d=" M 576.5 566.0000014305115 L 852.7500003576279 566.0000014305115 L 852.7500003576279 400 L 1129.0000007152557 400" stroke-linejoin="round" stroke-miterlimit="10" stroke-width="10"/><path fill="none" stroke="url(#nfRzeMAZPnED)" paint-order="fill stroke markers" d=" M 1403.0000007152557 439 L 1403.0000007152557 562.8500003576279 L 1403.0000007152557 562.8500003576279 L 1403.0000007152557 686.7000007152558" stroke-linejoin="round" stroke-miterlimit="10" stroke-width="10"/><path fill="none" stroke="url(#bTMUMyzUkdXn)" paint-order="fill stroke markers" d=" M 1403.0000007152557 439 L 1403.0000007152557 1145.4500021457673 L 300 1145.4500021457673 L 300 1851.9000042915345" stroke-linejoin="round" stroke-miterlimit="10" stroke-width="10"/><path fill="none" stroke="url(#TvuJZLlsTDMa)" paint-order="fill stroke markers" d=" M 1403.0000007152557 439 L 1403.0000007152557 1278.450002861023 L 300 1278.450002861023 L 300 2117.900005722046" stroke-linejoin="round" stroke-miterlimit="10" stroke-width="10"/><path fill="none" stroke="url(#xVEaJGiWFTBC)" paint-order="fill stroke markers" d=" M 1403.0000007152557 439 L 1403.0000007152557 1211.9500025033951 L 300 1211.9500025033951 L 300 1984.9000050067903" stroke-linejoin="round" stroke-miterlimit="10" stroke-width="10"/><path fill="none" stroke="url(#nkxlvtiqFigf)" paint-order="fill stroke markers" d=" M 1403.0000007152557 439 L 1403.0000007152557 1344.9500032186509 L 300 1344.9500032186509 L 300 2250.9000064373017" stroke-linejoin="round" stroke-miterlimit="10" stroke-width="10"/><path fill="rgb(255,247,224)" stroke="rgb(255,193,7)" paint-order="fill stroke markers" d=" M 300 261 L 566 261 L 566 261 A 8 8 0 0 1 574 269 L 574 331 L 574 331 A 8 8 0 0 1 566 339 L 34 339 L 34 339 A 8 8 0 0 1 26 331 L 26 269 L 26 269 A 8 8 0 0 1 34 261 L 300 261 Z" fill-opacity="1" stroke-opacity="1" stroke-miterlimit="10" stroke-width="5"/><text fill="rgb(0,0,0)" stroke="none" font-family="Avenir, Helvetica, Arial, sans-serif" font-size="32px" font-style="normal" font-weight="bold" text-decoration="normal" x="300" y="316" text-anchor="middle" dominant-baseline="text-after-edge" fill-opacity="1">instance_id</text><path fill="rgb(255,247,224)" stroke="rgb(255,193,7)" paint-order="fill stroke markers" d=" M 300 394.00000071525574 L 566 394.00000071525574 L 566 394.00000071525574 A 8 8 0 0 1 574 402.00000071525574 L 574 464.00000071525574 L 574 464.00000071525574 A 8 8 0 0 1 566 472.00000071525574 L 34 472.00000071525574 L 34 472.00000071525574 A 8 8 0 0 1 26 464.00000071525574 L 26 402.00000071525574 L 26 402.00000071525574 A 8 8 0 0 1 34 394.00000071525574 L 300 394.00000071525574 Z" fill-opacity="1" stroke-opacity="1" stroke-miterlimit="10" stroke-width="5"/><text fill="rgb(0,0,0)" stroke="none" font-family="Avenir, Helvetica, Arial, sans-serif" font-size="32px" font-style="normal" font-weight="bold" text-decoration="normal" x="300" y="449.00000071525574" text-anchor="middle" dominant-baseline="text-after-edge" fill-opacity="1">instance_public_ip</text><path fill="rgb(255,247,224)" stroke="rgb(255,193,7)" paint-order="fill stroke markers" d=" M 300 527.0000014305115 L 566 527.0000014305115 L 566 527.0000014305115 A 8 8 0 0 1 574 535.0000014305115 L 574 597.0000014305115 L 574 597.0000014305115 A 8 8 0 0 1 566 605.0000014305115 L 34 605.0000014305115 L 34 605.0000014305115 A 8 8 0 0 1 26 597.0000014305115 L 26 535.0000014305115 L 26 535.0000014305115 A 8 8 0 0 1 34 527.0000014305115 L 300 527.0000014305115 Z" fill-opacity="1" stroke-opacity="1" stroke-miterlimit="10" stroke-width="5"/><text fill="rgb(0,0,0)" stroke="none" font-family="Avenir, Helvetica, Arial, sans-serif" font-size="32px" font-style="normal" font-weight="bold" text-decoration="normal" x="300" y="582.0000014305115" text-anchor="middle" dominant-baseline="text-after-edge" fill-opacity="1">instance_private_ip</text><path fill="rgb(225,240,255)" stroke="rgb(29,122,218)" paint-order="fill stroke markers" d=" M 300 1322.4000014305116 L 566 1322.4000014305116 L 566 1322.4000014305116 A 8 8 0 0 1 574 1330.4000014305116 L 574 1392.4000014305116 L 574 1392.4000014305116 A 8 8 0 0 1 566 1400.4000014305116 L 34 1400.4000014305116 L 34 1400.4000014305116 A 8 8 0 0 1 26 1392.4000014305116 L 26 1330.4000014305116 L 26 1330.4000014305116 A 8 8 0 0 1 34 1322.4000014305116 L 300 1322.4000014305116 Z" fill-opacity="1" stroke-opacity="1" stroke-miterlimit="10" stroke-width="5"/><text fill="rgb(0,0,0)" stroke="none" font-family="Avenir, Helvetica, Arial, sans-serif" font-size="32px" font-style="normal" font-weight="bold" text-decoration="normal" x="300" y="1377.4000014305116" text-anchor="middle" dominant-baseline="text-after-edge" fill-opacity="1">volume_type</text><path fill="rgb(225,240,255)" stroke="rgb(29,122,218)" paint-order="fill stroke markers" d=" M 300 1455.4000021457673 L 566 1455.4000021457673 L 566 1455.4000021457673 A 8 8 0 0 1 574 1463.4000021457673 L 574 1525.4000021457673 L 574 1525.4000021457673 A 8 8 0 0 1 566 1533.4000021457673 L 34 1533.4000021457673 L 34 1533.4000021457673 A 8 8 0 0 1 26 1525.4000021457673 L 26 1463.4000021457673 L 26 1463.4000021457673 A 8 8 0 0 1 34 1455.4000021457673 L 300 1455.4000021457673 Z" fill-opacity="1" stroke-opacity="1" stroke-miterlimit="10" stroke-width="5"/><text fill="rgb(0,0,0)" stroke="none" font-family="Avenir, Helvetica, Arial, sans-serif" font-size="32px" font-style="normal" font-weight="bold" text-decoration="normal" x="300" y="1510.4000021457673" text-anchor="middle" dominant-baseline="text-after-edge" fill-opacity="1">volume_size</text><path fill="rgb(225,240,255)" stroke="rgb(29,122,218)" paint-order="fill stroke markers" d=" M 300 1588.400002861023 L 566 1588.400002861023 L 566 1588.400002861023 A 8 8 0 0 1 574 1596.400002861023 L 574 1658.400002861023 L 574 1658.400002861023 A 8 8 0 0 1 566 1666.400002861023 L 34 1666.400002861023 L 34 1666.400002861023 A 8 8 0 0 1 26 1658.400002861023 L 26 1596.400002861023 L 26 1596.400002861023 A 8 8 0 0 1 34 1588.400002861023 L 300 1588.400002861023 Z" fill-opacity="1" stroke-opacity="1" stroke-miterlimit="10" stroke-width="5"/><text fill="rgb(0,0,0)" stroke="none" font-family="Avenir, Helvetica, Arial, sans-serif" font-size="32px" font-style="normal" font-weight="bold" text-decoration="normal" x="300" y="1643.400002861023" text-anchor="middle" dominant-baseline="text-after-edge" fill-opacity="1">additional_ebs_volumes</text><path fill="rgb(225,240,255)" stroke="rgb(29,122,218)" paint-order="fill stroke markers" d=" M 300 1721.4000035762788 L 566 1721.4000035762788 L 566 1721.4000035762788 A 8 8 0 0 1 574 1729.4000035762788 L 574 1791.4000035762788 L 574 1791.4000035762788 A 8 8 0 0 1 566 1799.4000035762788 L 34 1799.4000035762788 L 34 1799.4000035762788 A 8 8 0 0 1 26 1791.4000035762788 L 26 1729.4000035762788 L 26 1729.4000035762788 A 8 8 0 0 1 34 1721.4000035762788 L 300 1721.4000035762788 Z" fill-opacity="1" stroke-opacity="1" stroke-miterlimit="10" stroke-width="5"/><text fill="rgb(0,0,0)" stroke="none" font-family="Avenir, Helvetica, Arial, sans-serif" font-size="32px" font-style="normal" font-weight="bold" text-decoration="normal" x="300" y="1776.4000035762788" text-anchor="middle" dominant-baseline="text-after-edge" fill-opacity="1">ami_canonical_filter_name</text><path fill="rgb(225,240,255)" stroke="rgb(29,122,218)" paint-order="fill stroke markers" d=" M 300 1854.4000042915345 L 566 1854.4000042915345 L 566 1854.4000042915345 A 8 8 0 0 1 574 1862.4000042915345 L 574 1924.4000042915345 L 574 1924.4000042915345 A 8 8 0 0 1 566 1932.4000042915345 L 34 1932.4000042915345 L 34 1932.4000042915345 A 8 8 0 0 1 26 1924.4000042915345 L 26 1862.4000042915345 L 26 1862.4000042915345 A 8 8 0 0 1 34 1854.4000042915345 L 300 1854.4000042915345 Z" fill-opacity="1" stroke-opacity="1" stroke-miterlimit="10" stroke-width="5"/><text fill="rgb(0,0,0)" stroke="none" font-family="Avenir, Helvetica, Arial, sans-serif" font-size="32px" font-style="normal" font-weight="bold" text-decoration="normal" x="300" y="1909.4000042915345" text-anchor="middle" dominant-baseline="text-after-edge" fill-opacity="1">instance_type</text><path fill="rgb(225,240,255)" stroke="rgb(29,122,218)" paint-order="fill stroke markers" d=" M 300 1987.4000050067903 L 566 1987.4000050067903 L 566 1987.4000050067903 A 8 8 0 0 1 574 1995.4000050067903 L 574 2057.4000050067903 L 574 2057.4000050067903 A 8 8 0 0 1 566 2065.4000050067903 L 34 2065.4000050067903 L 34 2065.4000050067903 A 8 8 0 0 1 26 2057.4000050067903 L 26 1995.4000050067903 L 26 1995.4000050067903 A 8 8 0 0 1 34 1987.4000050067903 L 300 1987.4000050067903 Z" fill-opacity="1" stroke-opacity="1" stroke-miterlimit="10" stroke-width="5"/><text fill="rgb(0,0,0)" stroke="none" font-family="Avenir, Helvetica, Arial, sans-serif" font-size="32px" font-style="normal" font-weight="bold" text-decoration="normal" x="300" y="2042.4000050067903" text-anchor="middle" dominant-baseline="text-after-edge" fill-opacity="1">instance_name</text><path fill="rgb(225,240,255)" stroke="rgb(29,122,218)" paint-order="fill stroke markers" d=" M 300 2120.400005722046 L 566 2120.400005722046 L 566 2120.400005722046 A 8 8 0 0 1 574 2128.400005722046 L 574 2190.400005722046 L 574 2190.400005722046 A 8 8 0 0 1 566 2198.400005722046 L 34 2198.400005722046 L 34 2198.400005722046 A 8 8 0 0 1 26 2190.400005722046 L 26 2128.400005722046 L 26 2128.400005722046 A 8 8 0 0 1 34 2120.400005722046 L 300 2120.400005722046 Z" fill-opacity="1" stroke-opacity="1" stroke-miterlimit="10" stroke-width="5"/><text fill="rgb(0,0,0)" stroke="none" font-family="Avenir, Helvetica, Arial, sans-serif" font-size="32px" font-style="normal" font-weight="bold" text-decoration="normal" x="300" y="2175.400005722046" text-anchor="middle" dominant-baseline="text-after-edge" fill-opacity="1">subnet_id</text><path fill="rgb(225,240,255)" stroke="rgb(29,122,218)" paint-order="fill stroke markers" d=" M 300 2253.4000064373017 L 566 2253.4000064373017 L 566 2253.4000064373017 A 8 8 0 0 1 574 2261.4000064373017 L 574 2323.4000064373017 L 574 2323.4000064373017 A 8 8 0 0 1 566 2331.4000064373017 L 34 2331.4000064373017 L 34 2331.4000064373017 A 8 8 0 0 1 26 2323.4000064373017 L 26 2261.4000064373017 L 26 2261.4000064373017 A 8 8 0 0 1 34 2253.4000064373017 L 300 2253.4000064373017 Z" fill-opacity="1" stroke-opacity="1" stroke-miterlimit="10" stroke-width="5"/><text fill="rgb(0,0,0)" stroke="none" font-family="Avenir, Helvetica, Arial, sans-serif" font-size="32px" font-style="normal" font-weight="bold" text-decoration="normal" x="300" y="2308.4000064373017" text-anchor="middle" dominant-baseline="text-after-edge" fill-opacity="1">security_group_ids</text><path fill="rgb(255,236,236)" stroke="rgb(220,71,125)" paint-order="fill stroke markers" d=" M 1403.0000007152557 689.2000007152558 L 1669.0000007152557 689.2000007152558 L 1669.0000007152557 689.2000007152558 A 8 8 0 0 1 1677.0000007152557 697.2000007152558 L 1677.0000007152557 759.2000007152558 L 1677.0000007152557 759.2000007152558 A 8 8 0 0 1 1669.0000007152557 767.2000007152558 L 1137.0000007152557 767.2000007152558 L 1137.0000007152557 767.2000007152558 A 8 8 0 0 1 1129.0000007152557 759.2000007152558 L 1129.0000007152557 697.2000007152558 L 1129.0000007152557 697.2000007152558 A 8 8 0 0 1 1137.0000007152557 689.2000007152558 L 1403.0000007152557 689.2000007152558 Z" fill-opacity="1" stroke-opacity="1" stroke-miterlimit="10" stroke-width="5"/><text fill="rgb(0,0,0)" stroke="none" font-family="Avenir, Helvetica, Arial, sans-serif" font-size="32px" font-style="normal" font-weight="bold" text-decoration="normal" x="1403.0000007152557" y="744.2000007152558" text-anchor="middle" dominant-baseline="text-after-edge" fill-opacity="1">ubuntu</text><path fill="rgb(40,167,69)" stroke="none" paint-order="stroke fill markers" d=" M 1403.0000007152557 361 L 1669.0000007152557 361 L 1669.0000007152557 361 A 8 8 0 0 1 1677.0000007152557 369 L 1677.0000007152557 431 L 1677.0000007152557 431 A 8 8 0 0 1 1669.0000007152557 439 L 1137.0000007152557 439 L 1137.0000007152557 439 A 8 8 0 0 1 1129.0000007152557 431 L 1129.0000007152557 369 L 1129.0000007152557 369 A 8 8 0 0 1 1137.0000007152557 361 L 1403.0000007152557 361 Z" fill-opacity="1"/><text fill="rgb(255,255,255)" stroke="none" font-family="Avenir, Helvetica, Arial, sans-serif" font-size="32px" font-style="normal" font-weight="bold" text-decoration="normal" x="1403.0000007152557" y="416" text-anchor="middle" dominant-baseline="text-after-edge" fill-opacity="1">this</text><g transform="scale(10,10) translate(-28.1,-4.75)"/></g></svg>